<?xml version="1.0" encoding="UTF-8"?>
<svg xmlns="http://www.w3.org/2000/svg" xmlns:xlink="http://www.w3.org/1999/xlink" viewBox="0 0 32 32" width="32px" height="32px">
<g id="surface50082714">
<path style=" stroke:none;fill-rule:nonzero;fill:rgb(100%,100%,100%);fill-opacity:1;" d="M 16 32 C 7.164062 32 0 24.835938 0 16 C 0 7.164062 7.164062 0 16 0 C 24.835938 0 32 7.164062 32 16 C 32 24.835938 24.835938 32 16 32 Z M 16 32 "/>
<path style=" stroke:none;fill-rule:evenodd;fill:rgb(0%,0%,0%);fill-opacity:1;" d="M 16 1.660156 C 8.046875 1.660156 1.601562 8.105469 1.601562 16.058594 C 1.601562 22.421875 5.726562 27.820312 11.449219 29.722656 C 12.171875 29.855469 12.433594 29.414062 12.433594 29.03125 C 12.433594 28.6875 12.417969 27.78125 12.414062 26.582031 C 8.40625 27.449219 7.5625 24.652344 7.5625 24.652344 C 6.90625 22.988281 5.964844 22.542969 5.964844 22.542969 C 4.65625 21.652344 6.0625 21.671875 6.0625 21.671875 C 7.507812 21.773438 8.265625 23.152344 8.265625 23.152344 C 9.550781 25.355469 11.636719 24.71875 12.457031 24.351562 C 12.585938 23.417969 12.960938 22.785156 13.371094 22.425781 C 10.171875 22.0625 6.8125 20.828125 6.8125 15.308594 C 6.8125 13.734375 7.375 12.449219 8.292969 11.441406 C 8.148438 11.082031 7.652344 9.613281 8.433594 7.632812 C 8.433594 7.632812 9.644531 7.246094 12.394531 9.109375 C 13.542969 8.789062 14.777344 8.628906 16 8.625 C 17.222656 8.628906 18.457031 8.789062 19.605469 9.109375 C 22.355469 7.246094 23.5625 7.632812 23.5625 7.632812 C 24.347656 9.613281 23.855469 11.082031 23.707031 11.441406 C 24.628906 12.449219 25.183594 13.734375 25.183594 15.308594 C 25.183594 20.839844 21.816406 22.054688 18.609375 22.414062 C 19.125 22.855469 19.585938 23.738281 19.585938 25.078125 C 19.585938 27.003906 19.570312 28.554688 19.570312 29.03125 C 19.570312 29.414062 19.828125 29.863281 20.5625 29.722656 C 26.28125 27.816406 30.398438 22.421875 30.398438 16.058594 C 30.398438 8.105469 23.953125 1.660156 16 1.660156 Z M 16 1.660156 "/>
</g>
</svg>
